<?xml version="1.0" standalone="no"?>
<!DOCTYPE svg PUBLIC "-//W3C//DTD SVG 20010904//EN"
 "http://www.w3.org/TR/2001/REC-SVG-20010904/DTD/svg10.dtd">
<svg version="1.0" xmlns="http://www.w3.org/2000/svg"
 width="256.000000pt" height="256.000000pt" viewBox="0 0 256.000000 256.000000"
 preserveAspectRatio="xMidYMid meet">

<g transform="translate(0.000000,256.000000) scale(0.100000,-0.100000)"
fill="#000000" stroke="none">
<path d="M1228 2383 c-9 -10 -59 -94 -111 -186 l-96 -168 362 -634 362 -635
258 0 c141 0 257 2 257 4 0 8 -914 1602 -928 1619 -9 10 -29 17 -52 17 -23 0
-43 -7 -52 -17z"/>
<path d="M897 1813 c-276 -473 -897 -1567 -897 -1581 0 -11 9 -31 21 -46 l21
-26 216 2 216 3 358 625 c197 344 358 628 358 633 0 9 -250 447 -255 447 -2 0
-19 -26 -38 -57z"/>
<path d="M1132 1013 l-142 -248 145 -3 c80 -1 210 -1 290 0 l145 3 -140 245
c-77 135 -144 246 -148 248 -5 1 -73 -109 -150 -245z"/>
<path d="M776 390 c-69 -121 -126 -222 -126 -225 0 -3 420 -5 934 -5 l935 0
20 26 c12 15 21 36 21 48 -1 11 -47 100 -104 196 l-104 175 -725 3 -725 2
-126 -220z"/>
</g>
</svg>
